<svg width="109" height="122" viewBox="0 0 109 122" fill="none" xmlns="http://www.w3.org/2000/svg">
<path d="M21.8197 103.326C19.9981 102.711 19.3429 101.406 19.3855 99.5467C19.4788 95.3881 19.3749 91.2242 19.5533 87.0735C19.7664 82.1352 21.4522 77.6318 24.2752 73.5872C28.4218 67.6516 34.0812 63.867 41.168 62.3181C43.1254 61.8911 45.1708 61.724 47.1788 61.7028C52.6757 61.6471 58.1753 61.6233 63.6695 61.793C69.0279 61.9574 73.8749 63.798 78.2053 66.9409C82.9884 70.4126 86.3041 74.961 88.1923 80.5465C89.1724 83.4453 89.5719 86.4396 89.5905 89.4843C89.6118 92.8393 89.5506 96.1943 89.6145 99.5493C89.6491 101.409 88.9993 102.713 87.1776 103.329C65.3926 103.326 43.6048 103.326 21.8197 103.326Z" fill="#FEFEFE"/>
<path d="M56.1379 20.8408C57.8823 21.2625 59.7039 21.4879 61.3551 22.1404C68.2049 24.8376 72.3568 29.8502 73.6085 37.0933C75.1133 45.7765 70.3647 54.2582 62.2206 57.8678C54.9048 61.1087 45.6262 59.1674 40.2944 53.2238C34.6937 46.9806 33.4979 38.6422 37.3622 31.2559C40.4595 25.3389 45.4797 21.9653 52.1191 21.0026C52.3827 20.9654 52.6411 20.8965 52.9021 20.8408C53.9807 20.8408 55.0593 20.8408 56.1379 20.8408Z" fill="#FEFEFE"/>
</svg>
