<?xml version="1.0" encoding="utf-8"?>
<!-- Generator: Adobe Illustrator 28.1.0, SVG Export Plug-In . SVG Version: 6.00 Build 0)  -->
<svg version="1.1" id="레이어_1" xmlns="http://www.w3.org/2000/svg" xmlns:xlink="http://www.w3.org/1999/xlink" x="0px"
	 y="0px" viewBox="0 0 288.81 58" style="enable-background:new 0 0 288.81 58;" xml:space="preserve">
<style type="text/css">
	.st0{clip-path:url(#SVGID_00000070112192728688662950000003972205966351197348_);}
	.st1{fill:#000047;}
</style>
<g>
	<g>
		<g>
			<defs>
				<rect id="SVGID_1_" x="5.85" y="10.6" width="275" height="29"/>
			</defs>
			<clipPath id="SVGID_00000096027439544513277290000011820891922865956227_">
				<use xlink:href="#SVGID_1_"  style="overflow:visible;"/>
			</clipPath>
			<g style="clip-path:url(#SVGID_00000096027439544513277290000011820891922865956227_);">
				<path class="st1" d="M139.61,18.4c-0.61-0.12-1.24-0.19-1.89-0.19c-1.72,0-3.2,0.38-4.37,1.13c-1.18,0.75-2.08,1.79-2.69,3.09
					s-0.91,2.8-0.91,4.46v12.14h4.14V27.04c0-1.46,0.38-2.63,1.13-3.48s1.78-1.28,3.07-1.28c0.53,0,1.07,0.07,1.62,0.2
					c0.54,0.14,1.05,0.36,1.53,0.65l0.11,0.07v-4.24l-0.04-0.02C140.79,18.7,140.22,18.51,139.61,18.4L139.61,18.4z"/>
				<path class="st1" d="M159.94,19.57c-1.59-0.95-3.41-1.43-5.4-1.43c-1.99,0-3.81,0.48-5.4,1.43s-2.87,2.24-3.81,3.85
					c-0.94,1.6-1.42,3.4-1.42,5.37s0.48,3.78,1.42,5.39s2.22,2.92,3.81,3.89c1.59,0.96,3.41,1.45,5.4,1.45
					c1.99,0,3.78-0.49,5.38-1.45s2.88-2.27,3.79-3.89c0.92-1.61,1.38-3.43,1.38-5.38c0-1.96-0.46-3.73-1.38-5.35
					C162.81,21.82,161.53,20.52,159.94,19.57L159.94,19.57z M160.12,32.15c-0.56,1.02-1.33,1.83-2.29,2.43
					c-0.96,0.6-2.07,0.9-3.29,0.9c-1.22,0-2.32-0.3-3.29-0.9c-0.96-0.6-1.75-1.41-2.33-2.43c-0.58-1.02-0.88-2.13-0.88-3.32
					s0.29-2.35,0.88-3.35c0.58-1,1.37-1.82,2.33-2.43s2.07-0.92,3.29-0.92c1.22,0,2.32,0.31,3.29,0.92
					c0.96,0.61,1.73,1.42,2.29,2.43c0.56,1,0.83,2.13,0.83,3.35s-0.28,2.32-0.83,3.33V32.15z"/>
				<path class="st1" d="M185.56,19.52c-1.55-0.93-3.36-1.4-5.38-1.4c-1.59,0-3.07,0.39-4.41,1.15c-0.84,0.47-1.58,1.06-2.2,1.75
					v-9.85h-4.14v17.69c0,1.99,0.47,3.81,1.4,5.43c0.93,1.61,2.21,2.91,3.8,3.83c1.59,0.93,3.41,1.4,5.4,1.4s3.81-0.49,5.4-1.45
					s2.86-2.27,3.78-3.87c0.91-1.6,1.38-3.4,1.38-5.33c0-2.07-0.45-3.93-1.34-5.53s-2.12-2.88-3.67-3.81h-0.02L185.56,19.52
					L185.56,19.52z M185.59,32.17c-0.56,1-1.33,1.82-2.29,2.43c-0.96,0.61-2.07,0.92-3.29,0.92s-2.32-0.31-3.29-0.92
					c-0.96-0.61-1.75-1.42-2.31-2.43c-0.57-1-0.86-2.13-0.86-3.35c0-1.22,0.29-2.32,0.86-3.33c0.57-1.02,1.35-1.83,2.31-2.43
					c0.96-0.6,2.07-0.9,3.29-0.9s2.32,0.3,3.29,0.9c0.96,0.6,1.74,1.41,2.29,2.43c0.56,1.02,0.83,2.13,0.83,3.33
					S186.15,31.16,185.59,32.17L185.59,32.17z"/>
				<path class="st1" d="M209.71,19.57c-1.59-0.95-3.41-1.43-5.4-1.43s-3.81,0.48-5.4,1.43s-2.87,2.24-3.81,3.85
					c-0.94,1.6-1.42,3.4-1.42,5.37s0.48,3.78,1.42,5.39s2.22,2.92,3.81,3.89s3.41,1.45,5.4,1.45s3.78-0.49,5.38-1.45
					s2.88-2.27,3.79-3.89c0.92-1.61,1.38-3.43,1.38-5.38c0-1.96-0.46-3.73-1.38-5.35C212.58,21.82,211.3,20.52,209.71,19.57
					L209.71,19.57z M209.89,32.15c-0.56,1.02-1.33,1.83-2.29,2.43c-0.96,0.6-2.07,0.9-3.29,0.9c-1.22,0-2.32-0.3-3.29-0.9
					c-0.96-0.6-1.75-1.41-2.33-2.43c-0.59-1.02-0.88-2.13-0.88-3.32s0.29-2.35,0.88-3.35c0.58-1,1.37-1.82,2.33-2.43
					s2.07-0.92,3.29-0.92c1.22,0,2.32,0.31,3.29,0.92c0.96,0.61,1.73,1.42,2.29,2.43c0.56,1,0.83,2.13,0.83,3.35
					s-0.28,2.32-0.83,3.33V32.15z"/>
				<path class="st1" d="M237.99,10.98c-0.4-0.26-0.86-0.38-1.35-0.38c-0.47,0-0.91,0.13-1.32,0.38c-0.41,0.26-0.75,0.59-0.99,1.02
					c-0.25,0.42-0.37,0.9-0.37,1.4s0.13,0.98,0.37,1.4c0.25,0.42,0.58,0.76,1,1c0.41,0.24,0.86,0.36,1.33,0.36
					c0.49,0,0.95-0.12,1.35-0.37c0.4-0.24,0.72-0.58,0.95-1c0.24-0.42,0.35-0.9,0.35-1.4s-0.12-0.98-0.35-1.4
					C238.71,11.56,238.39,11.22,237.99,10.98L237.99,10.98z"/>
				<path class="st1" d="M238.73,18.62h-4.14v20.39h4.14V18.62z"/>
				<path class="st1" d="M258.42,32.17c-0.58,1.08-1.35,1.91-2.29,2.47s-1.99,0.84-3.13,0.84s-2.19-0.31-3.12-0.92
					c-0.94-0.61-1.7-1.43-2.27-2.43c-0.57-1-0.86-2.13-0.86-3.35c0-1.22,0.29-2.3,0.86-3.31c0.57-1,1.33-1.81,2.27-2.41
					s1.99-0.9,3.12-0.9s2.19,0.28,3.13,0.82c0.93,0.54,1.7,1.38,2.29,2.49l0.04,0.07l3.44-1.97l-0.03-0.07
					c-0.92-1.85-2.17-3.22-3.74-4.08c-1.56-0.85-3.29-1.29-5.11-1.29c-1.4,0-2.75,0.27-4.02,0.81s-2.39,1.31-3.33,2.29
					c-0.94,0.98-1.7,2.13-2.23,3.41c-0.54,1.29-0.81,2.67-0.81,4.14s0.27,2.86,0.81,4.16c0.54,1.3,1.29,2.46,2.23,3.43
					c0.94,0.98,2.06,1.76,3.33,2.31c1.2,0.53,2.49,0.79,3.83,0.79c0.06,0,0.13,0,0.19,0c1.83,0,3.55-0.44,5.11-1.31
					c1.57-0.87,2.82-2.24,3.74-4.06l0.04-0.07l-3.44-1.93L258.42,32.17L258.42,32.17z"/>
				<path class="st1" d="M280.01,30.01c-0.56-0.75-1.27-1.34-2.12-1.74s-1.77-0.72-2.76-0.94c-0.98-0.22-1.9-0.45-2.74-0.66
					c-0.83-0.22-1.53-0.5-2.07-0.85c-0.54-0.34-0.79-0.83-0.79-1.46c0-0.53,0.16-0.99,0.46-1.35c0.31-0.37,0.73-0.66,1.24-0.87
					c0.51-0.2,1.08-0.31,1.69-0.31c0.9,0,1.72,0.18,2.47,0.53c0.73,0.35,1.32,0.96,1.74,1.83l0.04,0.07l3.2-1.86l-0.04-0.07
					c-0.43-0.77-1-1.48-1.69-2.1c-0.68-0.62-1.53-1.12-2.48-1.48c-0.96-0.36-2.07-0.54-3.31-0.54c-1.43,0-2.72,0.27-3.84,0.81
					s-2.01,1.29-2.65,2.21c-0.63,0.93-0.96,2.01-0.96,3.21c0,1.28,0.29,2.31,0.84,3.06c0.56,0.75,1.27,1.34,2.12,1.76
					s1.77,0.73,2.76,0.94c0.98,0.2,1.9,0.42,2.74,0.62c0.83,0.2,1.53,0.48,2.07,0.84c0.54,0.34,0.79,0.85,0.79,1.55
					c0,0.56-0.17,1.04-0.51,1.44s-0.81,0.71-1.38,0.91c-0.58,0.2-1.26,0.31-2.03,0.31c-1.08,0-2.03-0.2-2.81-0.61
					c-0.78-0.4-1.43-1.12-1.93-2.11l-0.03-0.07l-3.19,1.81l0.04,0.07c0.76,1.52,1.85,2.67,3.24,3.42c1.39,0.75,3.02,1.13,4.86,1.13
					c1.4,0,2.72-0.26,3.92-0.77c1.2-0.51,2.17-1.26,2.89-2.21s1.08-2.1,1.08-3.38c0-1.28-0.29-2.35-0.84-3.11L280.01,30.01z"/>
				<path class="st1" d="M224.78,14.35l-4.14,0.92v3.35h-3.91v3.7h3.91v9.35c0,1.55,0.29,2.93,0.88,4.11
					c0.58,1.18,1.45,2.11,2.59,2.78c1.13,0.66,2.53,1,4.15,1c0.56,0,1.11-0.07,1.67-0.2v-3.84c-0.44,0.1-0.88,0.15-1.31,0.15
					c-1.15,0-2.1-0.37-2.79-1.09c-0.69-0.72-1.05-1.75-1.05-3.05v-9.22h5.14v-3.7h-5.14V14.35L224.78,14.35z"/>
				<path class="st1" d="M49.16,19.57c-1.48-0.94-3.3-1.41-5.49-1.41s-3.93,0.47-5.39,1.41s-2.57,2.21-3.32,3.8
					c-0.76,1.59-1.13,3.38-1.13,5.38v10.27h4.13v-9.69c0-1.25,0.21-2.41,0.64-3.44c0.42-1.03,1.06-1.88,1.91-2.53
					c0.84-0.64,1.91-0.97,3.17-0.97c1.26,0,2.42,0.33,3.28,0.97c0.86,0.65,1.51,1.51,1.95,2.55c0.43,1.04,0.66,2.21,0.66,3.46v9.64
					h4.13v-10.3c0-1.97-0.38-3.75-1.15-5.34c-0.77-1.59-1.89-2.86-3.36-3.8C49.19,19.57,49.16,19.57,49.16,19.57z"/>
				<path class="st1" d="M69.32,27.79v3.29h5.16c-0.48,1.74-2.25,4.27-5.85,4.27c-4.25,0-6.47-3.56-6.47-6.39
					c0-3.51,2.77-6.5,6.44-6.5c2.45,0,4.46,1.64,5.24,2.91l4.32-1.18c-1.67-3.57-5.62-5.99-9.57-5.99
					c-6.79,0-10.65,5.43-10.65,10.76S62.22,39.6,68.6,39.6c5.92,0,10.49-5.1,10.49-10.13c0-1.11-0.08-1.66-0.08-1.66h-9.7
					L69.32,27.79z"/>
				<path class="st1" d="M93.97,18.19c-5.09,0-10.63,4.18-10.63,10.97c0,4.97,4.26,10.42,10.87,10.42c3.49,0,7-2.24,8.68-5.02
					l-4.36-1.21c-0.96,1.03-2.37,2.04-4.75,2.04c-3.21,0-6.07-2.94-6.07-6.48c0-3.21,2.67-6.48,6.24-6.48s6.15,2.35,6.31,5.36h-9.09
					v3.29h13.12c0.18-0.77,0.21-1.87,0.21-2.68C104.52,24.48,100.84,18.2,93.97,18.19L93.97,18.19z"/>
				<path class="st1" d="M17.35,18.15c-6.34,0-11.5,5.28-11.5,11.78c0,5.33,4.23,9.67,9.43,9.67s9.43-4.34,9.43-9.67h-4.13
					c0,3-2.38,5.44-5.3,5.44s-5.3-2.44-5.3-5.44c0-4.16,3.31-7.56,7.37-7.56s7.37,3.39,7.37,7.56h4.13
					C28.85,23.43,23.69,18.14,17.35,18.15L17.35,18.15z"/>
				<path class="st1" d="M28.84,34.78h-4.13v4.23h4.13V34.78z"/>
				<path class="st1" d="M113.24,18.62h-4.22v20.39h9.58v-4.23h-5.36V18.62z"/>
			</g>
		</g>
	</g>
</g>
</svg>
