<svg width="133" height="121" viewBox="0 0 133 121" fill="none" xmlns="http://www.w3.org/2000/svg">
<g clip-path="url(#clip0_2_48)">
<path d="M66.3617 0.453949C30.1509 0.453949 0.69458 30.1222 0.69458 66.5936C0.69458 96.5126 24.8593 120.862 54.575 120.862C84.2907 120.862 108.455 96.5231 108.455 66.5936H84.8821C84.8821 83.4289 71.2901 97.1188 54.575 97.1188C37.86 97.1188 24.2679 83.4289 24.2679 66.5936C24.2679 43.2164 43.1515 24.1969 66.3617 24.1969C89.5719 24.1969 108.455 43.2164 108.455 66.5936H132.029C132.018 30.1222 102.562 0.453949 66.3617 0.453949Z" fill="white"/>
<path d="M132.018 93.8165H108.445V117.559H132.018V93.8165Z" fill="white"/>
</g>
<defs>
<clipPath id="clip0_2_48">
<rect width="131.324" height="120.397" fill="white" transform="translate(0.69458 0.453949)"/>
</clipPath>
</defs>
</svg>
